HIERARCHY
ROOT root
{
	OFFSET 0.000000 0.000000 0.000000
	CHANNELS 6 Xposition Yposition Zposition Zrotation Yrotation Xrotation
	JOINT lhip
	{
		OFFSET 0.058581 -0.082280 -0.017664
		CHANNELS 3 Zrotation Yrotation Xrotation
		JOINT lknee
		{
			OFFSET 0.043451 -0.386469 0.008037
			CHANNELS 3 Zrotation Yrotation Xrotation
			JOINT lankle
			{
				OFFSET -0.014790 -0.426874 -0.037428
				CHANNELS 3 Zrotation Yrotation Xrotation
				JOINT ltoe
				{
					OFFSET 0.041054 -0.060286 0.122042
					CHANNELS 3 Zrotation Yrotation Xrotation
					End Site
					{
						OFFSET 0.000000 0.000000 0.000000
					}
				}
			}
		}
	}
	JOINT rhip
	{
		OFFSET -0.060310 -0.090513 -0.013543
		CHANNELS 3 Zrotation Yrotation Xrotation
		JOINT rknee
		{
			OFFSET -0.043257 -0.383688 -0.004843
			CHANNELS 3 Zrotation Yrotation Xrotation
			JOINT rankle
			{
				OFFSET 0.019056 -0.420046 -0.034562
				CHANNELS 3 Zrotation Yrotation Xrotation
				JOINT rtoe
				{
					OFFSET -0.034840 -0.062106 0.130323
					CHANNELS 3 Zrotation Yrotation Xrotation
					End Site
					{
						OFFSET 0.000000 0.000000 0.000000
					}
				}
			}
		}
	}
	JOINT lowerback
	{
		OFFSET 0.004439 0.124404 -0.038385
		CHANNELS 3 Zrotation Yrotation Xrotation
		JOINT upperback
		{
			OFFSET 0.004488 0.137956 0.026820
			CHANNELS 3 Zrotation Yrotation Xrotation
			JOINT chest
			{
				OFFSET -0.002265 0.056032 0.002855
				CHANNELS 3 Zrotation Yrotation Xrotation
				JOINT lowerneck
				{
					OFFSET -0.013390 0.211636 -0.033468
					CHANNELS 3 Zrotation Yrotation Xrotation
					JOINT upperneck
					{
						OFFSET 0.010113 0.088937 0.050410
						CHANNELS 3 Zrotation Yrotation Xrotation
						End Site
						{
							OFFSET 0.000000 0.000000 0.000000
						}
					}
				}
				JOINT lclavicle
				{
					OFFSET 0.071702 0.114000 -0.018898
					CHANNELS 3 Zrotation Yrotation Xrotation
					JOINT lshoulder
					{
						OFFSET 0.122921 0.045205 -0.019046
						CHANNELS 3 Zrotation Yrotation Xrotation
						JOINT lelbow
						{
							OFFSET 0.255332 -0.015649 -0.022946
							CHANNELS 3 Zrotation Yrotation Xrotation
							JOINT lwrist
							{
								OFFSET 0.265709 0.012698 -0.007375
								CHANNELS 3 Zrotation Yrotation Xrotation
								End Site
								{
									OFFSET 0.000000 0.000000 0.000000
								}
							}
						}
					}
				}
				JOINT rclavicle
				{
					OFFSET -0.082954 0.112472 -0.023707
					CHANNELS 3 Zrotation Yrotation Xrotation
					JOINT rshoulder
					{
						OFFSET -0.113228 0.046853 -0.008472
						CHANNELS 3 Zrotation Yrotation Xrotation
						JOINT relbow
						{
							OFFSET -0.260127 -0.014369 -0.031269
							CHANNELS 3 Zrotation Yrotation Xrotation
							JOINT rwrist
							{
								OFFSET -0.269108 0.006794 -0.006027
								CHANNELS 3 Zrotation Yrotation Xrotation
								End Site
								{
									OFFSET 0.000000 0.000000 0.000000
								}
							}
						}
					}
				}
			}
		}
	}
}
MOTION
Frames: 17
Frame Time: 0.033333
0.932934 0.393587 0.990575 87.857925 0.605835 92.395406 -1.106471 1.282628 -0.354899 -1.880798 -8.528866 3.151502 5.835100 11.840295 -15.680030 0.000000 -0.000000 0.000000 0.379122 -1.973960 -8.909045 2.700809 1.341006 17.755110 1.648868 -3.426960 -12.011604 0.000000 -0.000000 0.000000 4.118860 -0.314183 4.805334 0.951461 0.060094 -6.287673 -0.553300 -0.780413 0.159205 0.787379 6.162530 -12.280758 -5.106177 0.278548 10.414391 -28.618563 7.026782 -2.067490 -55.120960 -3.374899 12.813076 3.046289 -35.099793 17.608127 -2.210500 -6.385792 0.093703 28.493199 -3.121353 -3.002267 55.404665 3.689767 14.800463 -12.992587 26.138315 -2.847737 1.289080 3.051860 -4.183058 
0.935275 0.395189 0.990260 87.766059 0.687662 92.493249 -1.132522 1.327549 -0.392141 -1.899233 -8.481520 3.350072 5.831579 11.907402 -15.914281 0.000000 -0.000000 0.000000 0.351484 -1.839145 -8.862245 2.695133 1.334679 17.778581 1.674984 -3.424112 -12.168095 0.000000 -0.000000 0.000000 4.181908 -0.353315 5.036106 0.912875 0.070320 -6.275105 -0.557321 -0.735367 0.130851 0.791525 6.170054 -12.542105 -5.084261 0.251880 10.211139 -28.612158 6.854078 -2.012157 -55.089577 -3.151084 12.795251 2.906142 -34.812062 17.730476 -2.251127 -6.403932 0.143780 28.408064 -2.876770 -3.078695 55.381801 3.942971 14.821071 -12.984615 26.873499 -2.904525 1.119067 3.155437 -4.390329 
0.937641 0.396676 0.990022 87.686849 0.765978 92.598925 -1.147579 1.307976 -0.501147 -1.939643 -8.413973 3.658111 5.839868 11.967987 -16.168983 0.000000 -0.000000 0.000000 0.323907 -1.822110 -8.810416 2.705317 1.397707 17.771660 1.708011 -3.370448 -12.298921 0.000000 -0.000000 0.000000 4.232138 -0.305067 5.192134 0.874239 0.071768 -6.228478 -0.561136 -0.693848 0.121941 0.825099 6.151972 -12.791671 -5.022849 0.236460 9.980238 -28.594296 6.659627 -1.967111 -55.137550 -2.964010 12.772736 2.865119 -34.444521 17.773877 -2.276732 -6.387166 0.259130 28.288539 -2.600290 -3.054351 55.390836 4.160394 14.820754 -12.990350 27.372871 -2.908811 1.038930 3.237105 -4.490863 
0.940208 0.397940 0.989737 87.585071 0.841246 92.732052 -1.178256 1.275191 -0.549390 -1.933005 -8.336034 3.834755 5.889148 12.080725 -16.433700 0.000000 -0.000000 0.000000 0.299780 -1.785819 -8.757635 2.725873 1.452284 17.732946 1.722556 -3.329779 -12.461936 0.000000 -0.000000 0.000000 4.277271 -0.239566 5.297472 0.816963 0.121088 -6.238984 -0.572566 -0.674899 0.098233 0.906523 6.132820 -12.919044 -4.962541 0.211938 9.788203 -28.510793 6.564234 -1.888235 -55.234763 -2.781934 12.730250 2.849069 -34.109737 17.792459 -2.406274 -6.337733 0.246474 28.142364 -2.334219 -2.950288 55.445621 4.350253 14.868445 -12.953331 27.567275 -2.837467 1.001700 3.273950 -4.528468 
0.942476 0.398940 0.989183 87.504738 0.950903 92.935875 -1.147054 1.212089 -0.718847 -1.944132 -8.211109 4.077007 5.977663 12.228325 -16.822895 0.000000 -0.000000 0.000000 0.344685 -1.719424 -8.826774 2.736108 1.513613 17.779325 1.726562 -3.357106 -12.735925 0.000000 -0.000000 0.000000 4.272347 -0.147790 5.374634 0.804564 0.151712 -6.312338 -0.545976 -0.660702 0.117017 0.986046 6.114132 -13.133524 -4.923959 0.145002 9.695342 -28.482517 6.533626 -1.858650 -55.259611 -2.638092 12.695722 2.794982 -33.904011 17.824943 -2.556292 -6.296980 0.258065 28.067434 -2.107102 -2.897671 55.401673 4.512629 14.951329 -12.861299 27.633084 -2.599672 1.101445 3.278161 -4.383011 
0.944893 0.400077 0.988491 87.440143 1.050548 93.091347 -1.143774 1.200613 -0.891009 -1.954650 -8.132093 4.447233 6.118610 12.380300 -17.365041 0.000000 -0.000000 0.000000 0.327865 -1.723950 -8.878491 2.796881 1.557689 17.945920 1.799765 -3.327547 -13.134062 0.000000 -0.000000 0.000000 4.265607 -0.070830 5.560141 0.792393 0.209310 -6.382685 -0.532287 -0.588246 0.069494 1.039126 6.048160 -13.353798 -4.879239 0.043618 9.611988 -28.529343 6.476756 -1.844071 -55.138204 -2.471881 12.680572 2.633745 -33.819183 17.910244 -2.629129 -6.259525 0.310858 28.089719 -1.957121 -2.943894 55.275602 4.481703 14.922293 -12.754870 27.669793 -2.499845 1.124038 3.285530 -4.273122 
0.947502 0.400990 0.987549 87.380030 1.134932 93.222307 -1.163782 1.138422 -1.111404 -1.959845 -8.048149 5.008108 6.262959 12.576270 -18.014524 0.000000 -0.000000 0.000000 0.307955 -1.735279 -8.938748 2.869663 1.657772 18.200827 1.853003 -3.318887 -13.615407 0.000000 -0.000000 0.000000 4.233104 0.009588 5.789117 0.778098 0.261978 -6.465753 -0.522463 -0.549879 0.101513 1.107896 6.057659 -13.660572 -4.891999 -0.059075 9.463599 -28.527300 6.453730 -1.891415 -55.043633 -2.342214 12.682002 2.470491 -33.842502 18.040484 -2.681474 -6.194682 0.262849 28.140460 -1.881495 -2.957870 55.238833 4.475209 14.882771 -12.782188 27.767879 -2.604917 1.122015 3.234178 -4.346778 
0.950473 0.401919 0.986465 87.339750 1.241362 93.293813 -1.200479 1.033442 -1.397450 -1.946646 -7.959593 5.887946 6.454204 12.837519 -18.814627 0.000000 -0.000000 0.000000 0.362565 -1.712006 -8.955684 2.900941 1.785973 18.545435 1.850166 -3.394099 -14.179528 0.000000 -0.000000 0.000000 4.235593 0.104329 6.150650 0.750850 0.327552 -6.615392 -0.509238 -0.512626 0.139536 1.083146 5.981985 -14.007903 -4.828464 -0.118548 9.279893 -28.472458 6.351258 -1.896481 -55.101052 -2.187059 12.690280 2.365096 -33.795768 17.838731 -2.062553 -5.985334 -0.377537 28.121149 -1.910357 -3.024111 55.305999 4.306804 14.786679 -12.785030 28.041219 -2.882816 0.941749 3.165993 -4.878715 
0.954038 0.402945 0.985153 87.251754 1.389472 93.331228 -1.266893 0.852882 -1.682429 -1.867224 -7.775261 6.911968 6.681526 13.220469 -19.747311 0.000000 -0.000000 0.000000 0.451875 -1.671932 -8.890908 2.903447 1.812341 18.877391 1.811506 -3.377536 -14.753893 0.000000 -0.000000 0.000000 4.331277 0.200311 6.487219 0.700643 0.359844 -6.695233 -0.527885 -0.475055 0.204208 1.076514 5.961536 -14.305961 -4.765888 -0.107417 9.054182 -28.474877 6.249901 -1.934154 -55.062424 -2.067366 12.627641 2.339641 -33.841526 17.770579 -2.020969 -5.919905 -0.487166 28.042795 -1.865733 -2.976343 55.455109 4.126589 14.668386 -12.785231 28.385301 -3.157955 0.888755 3.144622 -5.341504 
0.958598 0.403938 0.983725 87.113106 1.539944 93.406496 -1.320482 0.754271 -1.834437 -1.785441 -7.616479 7.702177 6.923632 13.546448 -20.588018 0.000000 -0.000000 0.000000 0.529054 -1.660052 -8.817958 2.932406 1.913961 19.208583 1.762633 -3.352544 -15.279106 0.000000 -0.000000 0.000000 4.432978 0.289444 6.748771 0.660927 0.430921 -6.788981 -0.569835 -0.460666 0.253118 1.088604 5.942276 -14.495682 -4.735902 -0.082754 8.892221 -28.487784 6.200939 -1.923659 -54.974373 -1.922247 12.560060 2.239845 -33.930281 17.826768 -1.944203 -5.923157 -0.528753 28.005236 -1.864689 -2.900463 55.556972 3.895928 14.646599 -12.709775 28.710676 -3.101634 0.841366 3.144237 -5.528322 
0.964279 0.404990 0.982419 86.810201 1.665520 93.519772 -1.368865 0.799345 -1.677769 -1.722321 -7.501839 7.951848 7.078380 13.830661 -21.159467 0.000000 -0.000000 0.000000 0.531541 -1.614106 -8.693964 2.991872 2.071052 19.449739 1.783558 -3.239935 -15.721685 0.000000 -0.000000 0.000000 4.450635 0.332293 6.824249 0.638614 0.535712 -6.715698 -0.546277 -0.339196 0.307324 1.059982 5.963519 -14.655209 -4.712881 -0.063037 8.695133 -28.537143 6.155412 -1.932499 -54.944071 -1.775056 12.517622 2.201463 -33.951989 17.828160 -1.854188 -5.900768 -0.568990 27.968017 -1.771243 -2.828533 55.656073 3.729982 14.655556 -12.517580 28.751100 -2.836005 0.846413 3.092954 -5.525574 
0.970896 0.406021 0.981420 86.447320 1.735925 93.795031 -1.420166 0.856729 -1.457359 -1.720566 -7.371035 7.848243 7.208437 14.042467 -21.534122 0.000000 -0.000000 0.000000 0.477480 -1.500672 -8.635517 3.034450 2.224205 19.559022 1.804810 -3.160930 -16.088431 0.000000 -0.000000 0.000000 4.396676 0.383594 6.675559 0.608018 0.611519 -6.659496 -0.544999 -0.244389 0.336399 1.112815 6.061790 -14.600059 -4.683094 -0.016020 8.457763 -28.456948 6.187585 -1.869218 -55.003741 -1.648272 12.491980 2.171460 -33.837910 17.901390 -1.916829 -5.868920 -0.633352 27.888277 -1.606418 -2.661194 55.929420 3.714171 14.752689 -12.336585 28.310833 -2.385325 1.025538 3.003928 -5.395922 
0.978336 0.407193 0.980448 86.061079 1.816911 94.223994 -1.469878 0.886304 -1.259240 -1.708034 -7.223243 7.540178 7.289663 14.237171 -21.804025 0.000000 -0.000000 0.000000 0.431938 -1.380308 -8.646358 3.050346 2.397337 19.555583 1.803197 -3.065855 -16.419428 0.000000 -0.000000 0.000000 4.385190 0.433522 6.384398 0.573329 0.654112 -6.645573 -0.576460 -0.152078 0.309943 1.178894 6.165924 -14.439013 -4.621331 0.087202 8.301968 -28.300725 6.218526 -1.695365 -55.115835 -1.494972 12.496750 2.108216 -33.662963 18.025755 -2.071342 -5.846197 -0.782730 27.748246 -1.386672 -2.444266 56.360461 3.715959 14.889796 -12.195753 27.752047 -1.808896 1.182530 2.849686 -5.224710 
0.986314 0.408646 0.979385 85.645275 1.900454 94.744171 -1.567719 0.955601 -1.102947 -1.665537 -7.077428 7.197792 7.411664 14.424750 -22.112567 0.000000 -0.000000 0.000000 0.375253 -1.317327 -8.676128 3.061672 2.663975 19.473828 1.786078 -2.984222 -16.785266 0.000000 -0.000000 0.000000 4.428213 0.505236 6.132209 0.523906 0.706761 -6.730643 -0.634468 -0.060164 0.268536 1.215560 6.245231 -14.358885 -4.559692 0.145130 8.209580 -28.134510 6.137738 -1.535760 -55.137170 -1.338132 12.582340 1.759613 -33.441183 18.370534 -2.137551 -5.854446 -0.876893 27.611326 -1.147064 -2.260875 56.771457 3.715773 15.071715 -11.971797 27.383512 -1.167211 1.212488 2.780567 -5.072422 
0.994802 0.410319 0.978084 85.220335 2.033296 95.327716 -1.639086 1.010872 -1.024085 -1.630729 -6.958717 6.957346 7.489361 14.610796 -22.578833 0.000000 -0.000000 0.000000 0.331315 -1.218507 -8.725723 3.077110 2.834288 19.373074 1.776784 -2.856131 -17.239466 0.000000 -0.000000 0.000000 4.530383 0.589641 5.970571 0.471672 0.802313 -6.798156 -0.653897 0.051291 0.148102 1.205561 6.359710 -14.469545 -4.544762 0.168287 8.146164 -28.070015 5.893135 -1.465511 -55.072390 -1.226284 12.688818 1.441179 -33.209973 18.952039 -2.558582 -5.929277 -0.260853 27.554761 -0.831077 -2.111125 56.981543 3.692877 15.191246 -11.650837 27.420642 -0.632669 1.429707 2.734096 -4.822963 
1.003856 0.412166 0.976483 84.839318 2.195461 95.947762 -1.679006 1.057656 -1.026303 -1.633106 -6.844955 6.849787 7.585083 14.773757 -23.137389 0.000000 -0.000000 0.000000 0.311562 -1.092529 -8.794443 3.105880 3.054841 19.329112 1.758916 -2.843451 -17.785147 0.000000 -0.000000 0.000000 4.593857 0.653636 5.917912 0.466304 0.908405 -6.891228 -0.617756 0.161781 0.045757 1.178353 6.485835 -14.775926 -4.551670 0.159984 8.085843 -28.025113 5.631157 -1.449832 -55.077125 -1.146372 12.822231 1.069727 -33.140775 19.440305 -2.626525 -5.978636 -0.034884 27.600133 -0.474450 -1.988281 56.979250 3.791345 15.382417 -11.221300 27.724186 -0.105584 1.504689 2.837883 -4.652322 
1.013520 0.414277 0.974594 84.558597 2.321843 96.611813 -1.782482 1.073780 -1.125928 -1.623996 -6.743671 6.884432 7.708186 14.931929 -23.798414 0.000000 -0.000000 0.000000 0.244434 -1.057661 -8.957563 3.128683 3.202060 19.496041 1.732908 -2.777245 -18.495593 0.000000 -0.000000 0.000000 4.610959 0.729515 5.989995 0.467608 0.972416 -7.045760 -0.561952 0.228221 -0.051137 1.126884 6.634531 -15.151632 -4.567006 0.131123 8.010795 -27.992236 5.339191 -1.437948 -55.106041 -1.082471 12.937323 0.840447 -33.300874 19.718163 -2.573686 -6.045403 0.001193 27.712526 -0.047356 -1.891389 56.918065 3.967928 15.599447 -10.860533 28.238405 0.352974 1.505540 2.972169 -4.458850 
